<svg width="32" height="32" viewBox="0 0 32 32" fill="none" xmlns="http://www.w3.org/2000/svg">
<path fill-rule="evenodd" clip-rule="evenodd" d="M8.66667 4.48535C7.00981 4.48535 5.66667 5.8285 5.66667 7.48535V8.81868C5.66667 9.17091 5.72737 9.50896 5.83888 9.82294C4.25694 9.90666 3 11.2159 3 12.8187V20.5148C3 22.059 4.16668 23.3307 5.66667 23.4965V24.5149C5.66667 26.1717 7.00981 27.5149 8.66666 27.5149H23.3333C24.9902 27.5149 26.3333 26.1717 26.3333 24.5149V23.4965C27.8333 23.3307 29 22.059 29 20.5148V12.8187C29 11.2159 27.7431 9.90666 26.1611 9.82294C26.2726 9.50896 26.3333 9.17091 26.3333 8.81868V7.48535C26.3333 5.8285 24.9902 4.48535 23.3333 4.48535H8.66667ZM21.8374 11.8187H10.1626C10.2732 12.1315 10.3333 12.4681 10.3333 12.8187V20.5148C10.3333 22.059 9.16665 23.3307 7.66667 23.4965V24.5149C7.66667 25.0671 8.11438 25.5149 8.66666 25.5149H23.3333C23.8856 25.5149 24.3333 25.0671 24.3333 24.5149V23.4965C22.8334 23.3307 21.6667 22.059 21.6667 20.5148V12.8187C21.6667 12.468 21.7268 12.1315 21.8374 11.8187ZM7.66667 7.48535C7.66667 6.93307 8.11438 6.48535 8.66667 6.48535H23.3333C23.8856 6.48535 24.3333 6.93307 24.3333 7.48535V8.81868C24.3333 9.37097 23.8856 9.81869 23.3333 9.81869H8.66666C8.11438 9.81869 7.66667 9.37097 7.66667 8.81868V7.48535ZM6 11.8187C5.44771 11.8187 5 12.2664 5 12.8187V20.5148C5 21.0671 5.44772 21.5148 6 21.5148H7.33333C7.88562 21.5148 8.33333 21.0671 8.33333 20.5148V12.8187C8.33333 12.2664 7.88562 11.8187 7.33333 11.8187H6ZM23.6667 12.8187C23.6667 12.2664 24.1144 11.8187 24.6667 11.8187H26C26.5523 11.8187 27 12.2664 27 12.8187V20.5148C27 21.0671 26.5523 21.5148 26 21.5148H24.6667C24.1144 21.5148 23.6667 21.0671 23.6667 20.5148V12.8187Z" fill="#707070"/>
</svg>
