<svg width="17" height="17" viewBox="0 0 17 17" fill="none" xmlns="http://www.w3.org/2000/svg">
<path d="M8.9502 0.619141C7.36795 0.619141 5.82123 1.08833 4.50564 1.96738C3.19004 2.84643 2.16466 4.09586 1.55916 5.55767C0.953662 7.01948 0.795235 8.62801 1.10392 10.1799C1.4126 11.7317 2.17452 13.1572 3.29334 14.276C4.41216 15.3948 5.83763 16.1567 7.38947 16.4654C8.94132 16.7741 10.5499 16.6157 12.0117 16.0102C13.4735 15.4047 14.7229 14.3793 15.602 13.0637C16.481 11.7481 16.9502 10.2014 16.9502 8.61914C16.9477 6.49816 16.1041 4.46475 14.6043 2.96499C13.1046 1.46523 11.0712 0.621592 8.9502 0.619141ZM12.7603 7.2183L8.24707 11.526C8.13232 11.6352 7.97999 11.6961 7.82159 11.6961C7.6632 11.6961 7.51086 11.6352 7.39611 11.526L5.1401 9.37214C5.02224 9.25924 4.95401 9.10417 4.9504 8.941C4.94678 8.77783 5.00808 8.6199 5.12083 8.50189C5.23359 8.38388 5.38857 8.31546 5.55173 8.31164C5.7149 8.30782 5.87291 8.36892 5.99106 8.48152L7.82159 10.2297L11.9093 6.32767C12.0275 6.21507 12.1855 6.15397 12.3487 6.15779C12.5118 6.16161 12.6668 6.23004 12.7796 6.34804C12.8923 6.46605 12.9536 6.62399 12.95 6.78716C12.9464 6.95033 12.8782 7.1054 12.7603 7.2183Z" fill="#707070"/>
<path fill-rule="evenodd" clip-rule="evenodd" d="M12.7808 6.34948C13.0153 6.59662 13.0051 6.98709 12.7579 7.22161L8.21804 11.5299C7.97752 11.7581 7.5996 11.7554 7.36238 11.5237L5.13608 9.34961C4.89233 9.11157 4.8877 8.72099 5.12574 8.47724C5.36378 8.23348 5.75436 8.22885 5.99811 8.4669L7.79952 10.2261L11.9086 6.32665C12.1558 6.09212 12.5462 6.10234 12.7808 6.34948Z" fill="white"/>
</svg>
