<svg width="33" height="32" viewBox="0 0 33 32" fill="none" xmlns="http://www.w3.org/2000/svg">
<path d="M16.2764 3V29" stroke="#333333" stroke-width="2" stroke-linecap="round" stroke-linejoin="round"/>
<path d="M23.2764 11C23.2764 10.3434 23.147 9.69321 22.8958 9.08658C22.6445 8.47996 22.2762 7.92876 21.8119 7.46447C21.3476 7.00017 20.7964 6.63188 20.1898 6.3806C19.5832 6.12933 18.933 6 18.2764 6H13.7764C12.4503 6 11.1785 6.52678 10.2408 7.46447C9.30315 8.40215 8.77637 9.67392 8.77637 11C8.77637 12.3261 9.30315 13.5979 10.2408 14.5355C11.1785 15.4732 12.4503 16 13.7764 16H19.2764C20.6024 16 21.8742 16.5268 22.8119 17.4645C23.7496 18.4021 24.2764 19.6739 24.2764 21C24.2764 22.3261 23.7496 23.5979 22.8119 24.5355C21.8742 25.4732 20.6024 26 19.2764 26H13.2764C11.9503 26 10.6785 25.4732 9.74083 24.5355C8.80315 23.5979 8.27637 22.3261 8.27637 21" stroke="#333333" stroke-width="2" stroke-linecap="round" stroke-linejoin="round"/>
</svg>
