<svg width="33" height="32" viewBox="0 0 33 32" fill="none" xmlns="http://www.w3.org/2000/svg">
<path d="M8.70626 25.5145L2.99756 16L8.70626 6.4855C8.7951 6.33742 8.92078 6.21488 9.07105 6.1298C9.22132 6.04472 9.39106 6 9.56375 6H27.9976C28.2628 6 28.5171 6.10536 28.7047 6.29289C28.8922 6.48043 28.9976 6.73478 28.9976 7V25C28.9976 25.2652 28.8922 25.5196 28.7047 25.7071C28.5171 25.8946 28.2628 26 27.9976 26H9.56375C9.39106 26 9.22132 25.9553 9.07105 25.8702C8.92078 25.7851 8.7951 25.6626 8.70626 25.5145V25.5145Z" stroke="#333333" stroke-width="3" stroke-linecap="round" stroke-linejoin="round"/>
<path d="M20.9976 13L14.9976 19" stroke="#333333" stroke-width="3" stroke-linecap="round" stroke-linejoin="round"/>
<path d="M20.9976 19L14.9976 13" stroke="#333333" stroke-width="3" stroke-linecap="round" stroke-linejoin="round"/>
</svg>
