<svg width="32" height="32" viewBox="0 0 32 32" fill="none" xmlns="http://www.w3.org/2000/svg">
<path d="M6 5L26 27" stroke="#707070" stroke-width="2" stroke-linecap="round" stroke-linejoin="round"/>
<path d="M19.3636 19.7002C18.3823 20.5921 17.087 21.0577 15.7625 20.9946C14.438 20.9314 13.1928 20.3448 12.3008 19.3636C11.4088 18.3824 10.9431 17.0871 11.0061 15.7626C11.0692 14.4381 11.6557 13.1928 12.6368 12.3008" stroke="#707070" stroke-width="2" stroke-linecap="round" stroke-linejoin="round"/>
<path d="M9.24931 8.57422C4.15315 11.1549 2 16 2 16C2 16 6 24.999 16 24.999C18.343 25.0177 20.6567 24.478 22.7497 23.4247" stroke="#707070" stroke-width="2" stroke-linecap="round" stroke-linejoin="round"/>
<path d="M26.076 21.1374C28.8012 18.6965 29.9998 16 29.9998 16C29.9998 16 25.9998 6.99904 15.9998 6.99904C15.1337 6.99763 14.269 7.06804 13.4146 7.20956" stroke="#707070" stroke-width="2" stroke-linecap="round" stroke-linejoin="round"/>
<path d="M16.9409 11.0889C18.0036 11.2929 18.9715 11.8361 19.6994 12.6368C20.4274 13.4375 20.876 14.4527 20.9781 15.53" stroke="#707070" stroke-width="2" stroke-linecap="round" stroke-linejoin="round"/>
</svg>
