<svg width="26" height="26" viewBox="0 0 26 26" fill="none" xmlns="http://www.w3.org/2000/svg">
<path d="M13 24.375C19.2822 24.375 24.375 19.2822 24.375 13C24.375 6.71775 19.2822 1.625 13 1.625C6.71775 1.625 1.625 6.71775 1.625 13C1.625 19.2822 6.71775 24.375 13 24.375ZM12.1875 8.9375C12.1875 8.72201 12.2731 8.51535 12.4255 8.36298C12.5778 8.2106 12.7845 8.125 13 8.125C13.2155 8.125 13.4222 8.2106 13.5745 8.36298C13.7269 8.51535 13.8125 8.72201 13.8125 8.9375V12.1875H17.0625C17.278 12.1875 17.4847 12.2731 17.637 12.4255C17.7894 12.5778 17.875 12.7845 17.875 13C17.875 13.2155 17.7894 13.4222 17.637 13.5745C17.4847 13.7269 17.278 13.8125 17.0625 13.8125H13.8125V17.0625C13.8125 17.278 13.7269 17.4847 13.5745 17.637C13.4222 17.7894 13.2155 17.875 13 17.875C12.7845 17.875 12.5778 17.7894 12.4255 17.637C12.2731 17.4847 12.1875 17.278 12.1875 17.0625V13.8125H8.9375C8.72201 13.8125 8.51535 13.7269 8.36298 13.5745C8.2106 13.4222 8.125 13.2155 8.125 13C8.125 12.7845 8.2106 12.5778 8.36298 12.4255C8.51535 12.2731 8.72201 12.1875 8.9375 12.1875H12.1875V8.9375Z" fill="#AAAAAA"/>
</svg>
