<svg width="32" height="32" viewBox="0 0 32 32" fill="none" xmlns="http://www.w3.org/2000/svg">
<path d="M3 22.667V19.8081C3 12.6232 8.7692 6.69193 15.954 6.66707C17.6651 6.66102 19.3605 6.99281 20.943 7.6434C22.5255 8.294 23.9641 9.2506 25.1761 10.4584C26.3882 11.6661 27.3498 13.1013 28.006 14.6815C28.6622 16.2617 29 17.9559 29 19.667V22.667C29 22.9322 28.8946 23.1866 28.7071 23.3741C28.5196 23.5616 28.2652 23.667 28 23.667H4C3.73478 23.667 3.48043 23.5616 3.29289 23.3741C3.10536 23.1866 3 22.9322 3 22.667Z" stroke="#333333" stroke-width="2" stroke-linecap="round" stroke-linejoin="round"/>
<path d="M18 3.99995L14 4" stroke="#333333" stroke-width="2" stroke-linecap="round" stroke-linejoin="round"/>
<path d="M29.2764 27.8623H3.27637" stroke="#333333" stroke-width="2" stroke-linecap="round" stroke-linejoin="round"/>
</svg>
