<svg width="117" height="116" viewBox="0 0 117 116" fill="none" xmlns="http://www.w3.org/2000/svg">
<path fill-rule="evenodd" clip-rule="evenodd" d="M51.5978 4.48535C49.941 4.48535 48.5978 5.8285 48.5978 7.48535V8.81868C48.5978 9.17091 48.6585 9.50896 48.77 9.82294C47.1881 9.90666 45.9312 11.2159 45.9312 12.8187V20.5148C45.9312 22.059 47.0978 23.3307 48.5978 23.4965V24.5149C48.5978 26.1717 49.941 27.5149 51.5978 27.5149H66.2645C67.9213 27.5149 69.2645 26.1717 69.2645 24.5149V23.4965C70.7645 23.3307 71.9312 22.059 71.9312 20.5148V12.8187C71.9312 11.2159 70.6742 9.90666 69.0923 9.82294C69.2038 9.50896 69.2645 9.17091 69.2645 8.81868V7.48535C69.2645 5.8285 67.9213 4.48535 66.2645 4.48535H51.5978ZM64.7685 11.8187H53.0938C53.2043 12.1315 53.2645 12.4681 53.2645 12.8187V20.5148C53.2645 22.059 52.0978 23.3307 50.5978 23.4965V24.5149C50.5978 25.0671 51.0455 25.5149 51.5978 25.5149H66.2645C66.8168 25.5149 67.2645 25.0671 67.2645 24.5149V23.4965C65.7645 23.3307 64.5978 22.059 64.5978 20.5148V12.8187C64.5978 12.468 64.658 12.1315 64.7685 11.8187ZM50.5978 7.48535C50.5978 6.93307 51.0455 6.48535 51.5978 6.48535H66.2645C66.8168 6.48535 67.2645 6.93307 67.2645 7.48535V8.81868C67.2645 9.37097 66.8168 9.81869 66.2645 9.81869H51.5978C51.0455 9.81869 50.5978 9.37097 50.5978 8.81868V7.48535ZM48.9312 11.8187C48.3789 11.8187 47.9312 12.2664 47.9312 12.8187V20.5148C47.9312 21.0671 48.3789 21.5148 48.9312 21.5148H50.2645C50.8168 21.5148 51.2645 21.0671 51.2645 20.5148V12.8187C51.2645 12.2664 50.8168 11.8187 50.2645 11.8187H48.9312ZM66.5978 12.8187C66.5978 12.2664 67.0455 11.8187 67.5978 11.8187H68.9312C69.4834 11.8187 69.9312 12.2664 69.9312 12.8187V20.5148C69.9312 21.0671 69.4834 21.5148 68.9312 21.5148H67.5978C67.0455 21.5148 66.5978 21.0671 66.5978 20.5148V12.8187Z" fill="#3ACDAB"/>
<path fill-rule="evenodd" clip-rule="evenodd" d="M66.2645 111.515C67.9213 111.515 69.2645 110.172 69.2645 108.515V107.181C69.2645 106.829 69.2038 106.491 69.0923 106.177C70.6742 106.093 71.9312 104.784 71.9312 103.181V95.4852C71.9312 93.941 70.7645 92.6693 69.2645 92.5035V91.4851C69.2645 89.8283 67.9213 88.4851 66.2645 88.4851H51.5978C49.941 88.4851 48.5978 89.8283 48.5978 91.4851V92.5035C47.0978 92.6693 45.9312 93.941 45.9312 95.4852V103.181C45.9312 104.784 47.1881 106.093 48.77 106.177C48.6585 106.491 48.5978 106.829 48.5978 107.181V108.515C48.5978 110.172 49.941 111.515 51.5978 111.515H66.2645ZM53.0938 104.181H64.7685C64.658 103.869 64.5978 103.532 64.5978 103.181V95.4852C64.5978 93.941 65.7645 92.6693 67.2645 92.5035V91.4851C67.2645 90.9329 66.8168 90.4851 66.2645 90.4851H51.5978C51.0455 90.4851 50.5978 90.9329 50.5978 91.4851V92.5035C52.0978 92.6693 53.2645 93.941 53.2645 95.4852V103.181C53.2645 103.532 53.2043 103.869 53.0938 104.181ZM67.2645 108.515C67.2645 109.067 66.8168 109.515 66.2645 109.515H51.5978C51.0455 109.515 50.5978 109.067 50.5978 108.515V107.181C50.5978 106.629 51.0455 106.181 51.5978 106.181H66.2645C66.8168 106.181 67.2645 106.629 67.2645 107.181V108.515ZM68.9312 104.181C69.4834 104.181 69.9312 103.734 69.9312 103.181V95.4852C69.9312 94.9329 69.4834 94.4852 68.9312 94.4852H67.5978C67.0455 94.4852 66.5978 94.9329 66.5978 95.4852V103.181C66.5978 103.734 67.0455 104.181 67.5978 104.181H68.9312ZM51.2645 103.181C51.2645 103.734 50.8168 104.181 50.2645 104.181H48.9312C48.3789 104.181 47.9312 103.734 47.9312 103.181V95.4852C47.9312 94.9329 48.3789 94.4852 48.9312 94.4852H50.2645C50.8168 94.4852 51.2645 94.9329 51.2645 95.4852V103.181Z" fill="#3ACDAB"/>
<path fill-rule="evenodd" clip-rule="evenodd" d="M5.4165 65.3333C5.4165 66.9902 6.75965 68.3333 8.41651 68.3333H9.74984C10.1021 68.3333 10.4401 68.2726 10.7541 68.1611C10.8378 69.7431 12.147 71 13.7498 71H21.446C22.9902 71 24.2619 69.8333 24.4277 68.3333H25.446C27.1029 68.3333 28.446 66.9902 28.446 65.3333V50.6667C28.446 49.0098 27.1029 47.6667 25.446 47.6667H24.4277C24.2619 46.1667 22.9902 45 21.446 45H13.7498C12.147 45 10.8378 46.2569 10.7541 47.8389C10.4401 47.7274 10.1021 47.6667 9.74984 47.6667H8.4165C6.75965 47.6667 5.4165 49.0098 5.4165 50.6667L5.4165 65.3333ZM12.7498 52.1626V63.8374C13.0626 63.7268 13.3992 63.6667 13.7498 63.6667H21.446C22.9902 63.6667 24.2619 64.8334 24.4277 66.3333H25.446C25.9983 66.3333 26.446 65.8856 26.446 65.3333V50.6667C26.446 50.1144 25.9983 49.6667 25.446 49.6667H24.4277C24.2619 51.1666 22.9902 52.3333 21.446 52.3333H13.7498C13.3992 52.3333 13.0626 52.2732 12.7498 52.1626ZM8.41651 66.3333C7.86422 66.3333 7.4165 65.8856 7.4165 65.3333L7.4165 50.6667C7.4165 50.1144 7.86422 49.6667 8.4165 49.6667H9.74984C10.3021 49.6667 10.7498 50.1144 10.7498 50.6667V65.3333C10.7498 65.8856 10.3021 66.3333 9.74984 66.3333H8.41651ZM12.7498 68C12.7498 68.5523 13.1976 69 13.7498 69H21.446C21.9983 69 22.446 68.5523 22.446 68V66.6667C22.446 66.1144 21.9983 65.6667 21.446 65.6667H13.7498C13.1976 65.6667 12.7498 66.1144 12.7498 66.6667V68ZM13.7498 50.3333C13.1976 50.3333 12.7498 49.8856 12.7498 49.3333L12.7498 48C12.7498 47.4477 13.1976 47 13.7498 47H21.446C21.9983 47 22.446 47.4477 22.446 48V49.3333C22.446 49.8856 21.9983 50.3333 21.446 50.3333H13.7498Z" fill="#3ACDAB"/>
<path fill-rule="evenodd" clip-rule="evenodd" d="M112.446 50.6667C112.446 49.0098 111.103 47.6667 109.446 47.6667H108.112C107.76 47.6667 107.422 47.7274 107.108 47.8389C107.024 46.2569 105.715 45 104.112 45H96.4163C94.8721 45 93.6004 46.1667 93.4346 47.6667H92.4163C90.7594 47.6667 89.4163 49.0098 89.4163 50.6667V65.3333C89.4163 66.9902 90.7594 68.3333 92.4163 68.3333H93.4346C93.6004 69.8333 94.8721 71 96.4163 71H104.112C105.715 71 107.024 69.7431 107.108 68.1611C107.422 68.2726 107.76 68.3333 108.112 68.3333H109.446C111.103 68.3333 112.446 66.9902 112.446 65.3333V50.6667ZM105.112 63.8374V52.1626C104.8 52.2732 104.463 52.3333 104.112 52.3333H96.4163C94.8721 52.3333 93.6004 51.1666 93.4346 49.6667H92.4163C91.864 49.6667 91.4163 50.1144 91.4163 50.6667V65.3333C91.4163 65.8856 91.864 66.3333 92.4163 66.3333H93.4346C93.6004 64.8334 94.8721 63.6667 96.4163 63.6667H104.112C104.463 63.6667 104.8 63.7268 105.112 63.8374ZM109.446 49.6667C109.998 49.6667 110.446 50.1144 110.446 50.6667V65.3333C110.446 65.8856 109.998 66.3333 109.446 66.3333H108.112C107.56 66.3333 107.112 65.8856 107.112 65.3333V50.6667C107.112 50.1144 107.56 49.6667 108.112 49.6667H109.446ZM105.112 48C105.112 47.4477 104.665 47 104.112 47H96.4163C95.864 47 95.4163 47.4477 95.4163 48V49.3333C95.4163 49.8856 95.864 50.3333 96.4163 50.3333H104.112C104.665 50.3333 105.112 49.8856 105.112 49.3333V48ZM104.112 65.6667C104.665 65.6667 105.112 66.1144 105.112 66.6667V68C105.112 68.5523 104.665 69 104.112 69H96.4163C95.864 69 95.4163 68.5523 95.4163 68V66.6667C95.4163 66.1144 95.864 65.6667 96.4163 65.6667H104.112Z" fill="#3ACDAB"/>
<circle cx="58.9312" cy="58" r="36" fill="#3ACDAB"/>
<g filter="url(#filter0_d)">
<circle cx="58.9312" cy="80" r="6" fill="url(#paint0_radial)"/>
</g>
<g filter="url(#filter1_d)">
<circle cx="58.9312" cy="36" r="6" fill="url(#paint1_radial)"/>
</g>
<g filter="url(#filter2_d)">
<circle cx="36.9312" cy="58" r="6" fill="url(#paint2_radial)"/>
</g>
<g filter="url(#filter3_d)">
<circle cx="80.9312" cy="58" r="6" fill="url(#paint3_radial)"/>
</g>
<defs>
<filter id="filter0_d" x="50.9312" y="73" width="16" height="16" filterUnits="userSpaceOnUse" color-interpolation-filters="sRGB">
<feFlood flood-opacity="0" result="BackgroundImageFix"/>
<feColorMatrix in="SourceAlpha" type="matrix" values="0 0 0 0 0 0 0 0 0 0 0 0 0 0 0 0 0 0 127 0" result="hardAlpha"/>
<feOffset dy="1"/>
<feGaussianBlur stdDeviation="1"/>
<feColorMatrix type="matrix" values="0 0 0 0 0 0 0 0 0 0 0 0 0 0 0 0 0 0 0.08 0"/>
<feBlend mode="normal" in2="BackgroundImageFix" result="effect1_dropShadow"/>
<feBlend mode="normal" in="SourceGraphic" in2="effect1_dropShadow" result="shape"/>
</filter>
<filter id="filter1_d" x="50.9312" y="29" width="16" height="16" filterUnits="userSpaceOnUse" color-interpolation-filters="sRGB">
<feFlood flood-opacity="0" result="BackgroundImageFix"/>
<feColorMatrix in="SourceAlpha" type="matrix" values="0 0 0 0 0 0 0 0 0 0 0 0 0 0 0 0 0 0 127 0" result="hardAlpha"/>
<feOffset dy="1"/>
<feGaussianBlur stdDeviation="1"/>
<feColorMatrix type="matrix" values="0 0 0 0 0 0 0 0 0 0 0 0 0 0 0 0 0 0 0.08 0"/>
<feBlend mode="normal" in2="BackgroundImageFix" result="effect1_dropShadow"/>
<feBlend mode="normal" in="SourceGraphic" in2="effect1_dropShadow" result="shape"/>
</filter>
<filter id="filter2_d" x="28.9312" y="51" width="16" height="16" filterUnits="userSpaceOnUse" color-interpolation-filters="sRGB">
<feFlood flood-opacity="0" result="BackgroundImageFix"/>
<feColorMatrix in="SourceAlpha" type="matrix" values="0 0 0 0 0 0 0 0 0 0 0 0 0 0 0 0 0 0 127 0" result="hardAlpha"/>
<feOffset dy="1"/>
<feGaussianBlur stdDeviation="1"/>
<feColorMatrix type="matrix" values="0 0 0 0 0 0 0 0 0 0 0 0 0 0 0 0 0 0 0.08 0"/>
<feBlend mode="normal" in2="BackgroundImageFix" result="effect1_dropShadow"/>
<feBlend mode="normal" in="SourceGraphic" in2="effect1_dropShadow" result="shape"/>
</filter>
<filter id="filter3_d" x="72.9312" y="51" width="16" height="16" filterUnits="userSpaceOnUse" color-interpolation-filters="sRGB">
<feFlood flood-opacity="0" result="BackgroundImageFix"/>
<feColorMatrix in="SourceAlpha" type="matrix" values="0 0 0 0 0 0 0 0 0 0 0 0 0 0 0 0 0 0 127 0" result="hardAlpha"/>
<feOffset dy="1"/>
<feGaussianBlur stdDeviation="1"/>
<feColorMatrix type="matrix" values="0 0 0 0 0 0 0 0 0 0 0 0 0 0 0 0 0 0 0.08 0"/>
<feBlend mode="normal" in2="BackgroundImageFix" result="effect1_dropShadow"/>
<feBlend mode="normal" in="SourceGraphic" in2="effect1_dropShadow" result="shape"/>
</filter>
<radialGradient id="paint0_radial" cx="0" cy="0" r="1" gradientUnits="userSpaceOnUse" gradientTransform="translate(58.9312 80) rotate(90) scale(6)">
<stop stop-color="#F7F6F6" stop-opacity="0.7"/>
<stop offset="1" stop-color="#FFFCFC"/>
</radialGradient>
<radialGradient id="paint1_radial" cx="0" cy="0" r="1" gradientUnits="userSpaceOnUse" gradientTransform="translate(58.9312 36) rotate(90) scale(6)">
<stop stop-color="#F7F6F6" stop-opacity="0.7"/>
<stop offset="1" stop-color="#FFFCFC"/>
</radialGradient>
<radialGradient id="paint2_radial" cx="0" cy="0" r="1" gradientUnits="userSpaceOnUse" gradientTransform="translate(36.9312 58) rotate(90) scale(6)">
<stop stop-color="#F7F6F6" stop-opacity="0.7"/>
<stop offset="1" stop-color="#FFFCFC"/>
</radialGradient>
<radialGradient id="paint3_radial" cx="0" cy="0" r="1" gradientUnits="userSpaceOnUse" gradientTransform="translate(80.9312 58) rotate(90) scale(6)">
<stop stop-color="#F7F6F6" stop-opacity="0.7"/>
<stop offset="1" stop-color="#FFFCFC"/>
</radialGradient>
</defs>
</svg>
