<svg width="32" height="32" viewBox="0 0 32 32" fill="none" xmlns="http://www.w3.org/2000/svg">
<path d="M19 13.5H23" stroke="#333333" stroke-width="2" stroke-linecap="round" stroke-linejoin="round"/>
<path d="M9 13.5H13" stroke="#333333" stroke-width="2" stroke-linecap="round" stroke-linejoin="round"/>
<path d="M11 11.5V15.5" stroke="#333333" stroke-width="2" stroke-linecap="round" stroke-linejoin="round"/>
<path d="M21.5022 6.96777L10.5004 7.0003C8.9722 7.00041 7.49286 7.53883 6.32207 8.52103C5.15129 9.50324 4.3639 10.8665 4.09811 12.3714L4.09918 12.3716L2.05363 22.8919C1.92442 23.625 2.03227 24.3801 2.36151 25.0477C2.69074 25.7153 3.22422 26.2605 3.88446 26.6042C4.5447 26.948 5.29732 27.0722 6.03301 26.959C6.7687 26.8459 7.44915 26.5011 7.97553 25.9748L7.97533 25.9746L13.3798 20.0003L21.5022 19.9678C23.2261 19.9678 24.8794 19.283 26.0984 18.064C27.3173 16.845 28.0022 15.1917 28.0022 13.4678C28.0022 11.7439 27.3173 10.0906 26.0984 8.87158C24.8794 7.65259 23.2261 6.96777 21.5022 6.96777V6.96777Z" stroke="#333333" stroke-width="2" stroke-linecap="round" stroke-linejoin="round"/>
<path d="M27.9035 12.3389L29.9474 22.8918C30.0766 23.6248 29.9688 24.38 29.6395 25.0475C29.3103 25.7151 28.7768 26.2603 28.1166 26.6041C27.4563 26.9478 26.7037 27.0721 25.968 26.9589C25.2323 26.8457 24.5519 26.5009 24.0255 25.9746L24.0257 25.9744L18.625 19.9791" stroke="#333333" stroke-width="2" stroke-linecap="round" stroke-linejoin="round"/>
</svg>
