<svg width="33" height="32" viewBox="0 0 33 32" fill="none" xmlns="http://www.w3.org/2000/svg">
<path d="M12.6438 15.3538C11.873 13.4311 11.7896 11.3011 12.4079 9.32394C13.0262 7.34679 14.3081 5.64376 16.0371 4.50271C17.7661 3.36165 19.836 2.85256 21.897 3.06149C23.958 3.27042 25.8836 4.18454 27.3485 5.64936C28.8133 7.11418 29.7274 9.03983 29.9363 11.1008C30.1452 13.1618 29.6361 15.2317 28.4951 16.9607C27.354 18.6897 25.651 19.9717 23.6738 20.5899C21.6967 21.2082 19.5667 21.1249 17.6439 20.354L17.644 20.3538L15.998 21.9997H12.998V24.9997H9.99805V27.9997H4.99805V22.9997L12.644 15.3537L12.6438 15.3538Z" stroke="#707070" stroke-width="2" stroke-linecap="round" stroke-linejoin="round"/>
<path opacity="0.5" d="M23.4976 10C23.7737 10 23.9976 9.77614 23.9976 9.5C23.9976 9.22386 23.7737 9 23.4976 9C23.2214 9 22.9976 9.22386 22.9976 9.5C22.9976 9.77614 23.2214 10 23.4976 10Z" stroke="#707070" stroke-width="2" stroke-linecap="round" stroke-linejoin="round"/>
<path d="M23.4976 11C24.326 11 24.9976 10.3284 24.9976 9.5C24.9976 8.67157 24.326 8 23.4976 8C22.6691 8 21.9976 8.67157 21.9976 9.5C21.9976 10.3284 22.6691 11 23.4976 11Z" fill="#707070"/>
</svg>
