<svg width="32" height="32" viewBox="0 0 32 32" fill="none" xmlns="http://www.w3.org/2000/svg">
<path d="M6.38662 26.2822C5.64941 26.2832 4.95598 26.2842 4.32057 26.2852C3.84395 26.2863 2.89503 25.9928 2.91234 24.8095C2.92966 23.6263 2.91956 12.5144 2.91234 7.10628C2.90882 6.64214 3.26038 5.71387 4.69487 5.71387H27.5708C28.0835 5.73001 29.1046 6.07414 29.087 7.32155C29.0694 8.56895 29.0797 19.2173 29.087 24.3855C29.1016 25.0297 28.8256 26.3115 27.6046 26.2852C27.3782 26.2803 26.6849 26.2768 25.6592 26.2745M6.38662 26.2822V19.0619C6.41052 18.7992 6.59588 18.2738 7.14612 18.2738C7.69635 18.2738 19.2589 18.2738 24.9714 18.2738C25.2055 18.3025 25.6707 18.5088 25.6592 19.1049C25.6478 19.701 25.6545 24.133 25.6592 26.2745M6.38662 26.2822C12.5041 26.2739 21.6369 26.2655 25.6592 26.2745" stroke="#333333" stroke-width="2" stroke-linecap="round" stroke-linejoin="round"/>
<circle cx="10.2521" cy="22.2863" r="1.79113" stroke="#333333" stroke-width="1.5"/>
<rect x="14.2944" y="21.2549" width="2.66307" height="3.41654" rx="1" transform="rotate(-15 14.2944 21.2549)" stroke="#333333" stroke-width="1.5"/>
<rect x="20.709" y="20.5586" width="2.66307" height="3.41654" rx="1" stroke="#333333" stroke-width="1.5"/>
</svg>
