<svg width="32" height="32" viewBox="0 0 32 32" fill="none" xmlns="http://www.w3.org/2000/svg">
<path d="M27 6.00098H5C4.44772 6.00098 4 6.44869 4 7.00098V25.001C4 25.5533 4.44772 26.001 5 26.001H27C27.5523 26.001 28 25.5533 28 25.001V7.00098C28 6.44869 27.5523 6.00098 27 6.00098Z" stroke="#707070" stroke-width="2" stroke-linecap="round" stroke-linejoin="round"/>
<path d="M15.9517 12.2852C16.4401 12.7728 16.8276 13.3519 17.092 13.9894C17.3563 14.6269 17.4924 15.3103 17.4924 16.0004C17.4924 16.6906 17.3563 17.374 17.092 18.0115C16.8276 18.649 16.4401 19.2281 15.9517 19.7157" stroke="#707070" stroke-width="2" stroke-linecap="round" stroke-linejoin="round"/>
<path d="M20.8335 10.2217C21.5933 10.9802 22.196 11.881 22.6073 12.8727C23.0186 13.8644 23.2302 14.9274 23.2302 16.001C23.2302 17.0745 23.0186 18.1376 22.6073 19.1293C22.196 20.1209 21.5933 21.0218 20.8335 21.7803" stroke="#707070" stroke-width="2" stroke-linecap="round" stroke-linejoin="round"/>
</svg>
