<svg width="49" height="118" viewBox="0 0 49 118" fill="none" xmlns="http://www.w3.org/2000/svg">
<path fill-rule="evenodd" clip-rule="evenodd" d="M17.5295 4.48535C15.8726 4.48535 14.5295 5.8285 14.5295 7.48535V8.81868C14.5295 9.17091 14.5902 9.50896 14.7017 9.82294C13.1197 9.90666 11.8628 11.2159 11.8628 12.8187V20.5148C11.8628 22.059 13.0295 23.3307 14.5295 23.4965V24.5149C14.5295 26.1717 15.8726 27.5149 17.5295 27.5149H32.1961C33.853 27.5149 35.1961 26.1717 35.1961 24.5149V23.4965C36.6961 23.3307 37.8628 22.059 37.8628 20.5148V12.8187C37.8628 11.2159 36.6059 9.90666 35.0239 9.82294C35.1354 9.50896 35.1961 9.17091 35.1961 8.81868V7.48535C35.1961 5.8285 33.853 4.48535 32.1961 4.48535H17.5295ZM30.7002 11.8187H19.0254C19.136 12.1315 19.1961 12.4681 19.1961 12.8187V20.5148C19.1961 22.059 18.0294 23.3307 16.5295 23.4965V24.5149C16.5295 25.0671 16.9772 25.5149 17.5295 25.5149H32.1961C32.7484 25.5149 33.1961 25.0671 33.1961 24.5149V23.4965C31.6961 23.3307 30.5295 22.059 30.5295 20.5148V12.8187C30.5295 12.468 30.5896 12.1315 30.7002 11.8187ZM16.5295 7.48535C16.5295 6.93307 16.9772 6.48535 17.5295 6.48535H32.1961C32.7484 6.48535 33.1961 6.93307 33.1961 7.48535V8.81868C33.1961 9.37097 32.7484 9.81869 32.1961 9.81869H17.5295C16.9772 9.81869 16.5295 9.37097 16.5295 8.81868V7.48535ZM14.8628 11.8187C14.3105 11.8187 13.8628 12.2664 13.8628 12.8187V20.5148C13.8628 21.0671 14.3105 21.5148 14.8628 21.5148H16.1961C16.7484 21.5148 17.1961 21.0671 17.1961 20.5148V12.8187C17.1961 12.2664 16.7484 11.8187 16.1961 11.8187H14.8628ZM32.5295 12.8187C32.5295 12.2664 32.9772 11.8187 33.5295 11.8187H34.8628C35.4151 11.8187 35.8628 12.2664 35.8628 12.8187V20.5148C35.8628 21.0671 35.4151 21.5148 34.8628 21.5148H33.5295C32.9772 21.5148 32.5295 21.0671 32.5295 20.5148V12.8187Z" fill="#3ACDAB"/>
<path fill-rule="evenodd" clip-rule="evenodd" d="M32.1961 113.515C33.853 113.515 35.1961 112.172 35.1961 110.515V109.181C35.1961 108.829 35.1354 108.491 35.0239 108.177C36.6059 108.093 37.8628 106.784 37.8628 105.181V97.4852C37.8628 95.941 36.6961 94.6693 35.1961 94.5035V93.4851C35.1961 91.8283 33.853 90.4851 32.1961 90.4851H17.5295C15.8726 90.4851 14.5295 91.8283 14.5295 93.4851V94.5035C13.0295 94.6693 11.8628 95.941 11.8628 97.4852L11.8628 105.181C11.8628 106.784 13.1197 108.093 14.7017 108.177C14.5902 108.491 14.5295 108.829 14.5295 109.181V110.515C14.5295 112.172 15.8726 113.515 17.5295 113.515H32.1961ZM19.0254 106.181H30.7002C30.5896 105.869 30.5295 105.532 30.5295 105.181V97.4852C30.5295 95.941 31.6961 94.6693 33.1961 94.5035V93.4851C33.1961 92.9329 32.7484 92.4851 32.1961 92.4851H17.5295C16.9772 92.4851 16.5295 92.9329 16.5295 93.4851V94.5035C18.0294 94.6693 19.1961 95.941 19.1961 97.4852L19.1961 105.181C19.1961 105.532 19.136 105.869 19.0254 106.181ZM33.1961 110.515C33.1961 111.067 32.7484 111.515 32.1961 111.515H17.5295C16.9772 111.515 16.5295 111.067 16.5295 110.515V109.181C16.5295 108.629 16.9772 108.181 17.5295 108.181H32.1961C32.7484 108.181 33.1961 108.629 33.1961 109.181V110.515ZM34.8628 106.181C35.4151 106.181 35.8628 105.734 35.8628 105.181V97.4852C35.8628 96.9329 35.4151 96.4852 34.8628 96.4852H33.5295C32.9772 96.4852 32.5295 96.9329 32.5295 97.4852V105.181C32.5295 105.734 32.9772 106.181 33.5295 106.181H34.8628ZM17.1961 105.181C17.1961 105.734 16.7484 106.181 16.1961 106.181H14.8628C14.3105 106.181 13.8628 105.734 13.8628 105.181L13.8628 97.4852C13.8628 96.9329 14.3105 96.4852 14.8628 96.4852H16.1961C16.7484 96.4852 17.1961 96.9329 17.1961 97.4852L17.1961 105.181Z" fill="#3ACDAB"/>
<rect x="0.862793" y="23" width="48" height="72" rx="4" fill="#3ACDAB"/>
<g filter="url(#filter0_d)">
<circle cx="24.8628" cy="37" r="6" fill="url(#paint0_radial)"/>
</g>
<g filter="url(#filter1_d)">
<circle cx="24.8628" cy="81" r="6" fill="url(#paint1_radial)"/>
</g>
<defs>
<filter id="filter0_d" x="16.8628" y="30" width="16" height="16" filterUnits="userSpaceOnUse" color-interpolation-filters="sRGB">
<feFlood flood-opacity="0" result="BackgroundImageFix"/>
<feColorMatrix in="SourceAlpha" type="matrix" values="0 0 0 0 0 0 0 0 0 0 0 0 0 0 0 0 0 0 127 0" result="hardAlpha"/>
<feOffset dy="1"/>
<feGaussianBlur stdDeviation="1"/>
<feColorMatrix type="matrix" values="0 0 0 0 0 0 0 0 0 0 0 0 0 0 0 0 0 0 0.08 0"/>
<feBlend mode="normal" in2="BackgroundImageFix" result="effect1_dropShadow"/>
<feBlend mode="normal" in="SourceGraphic" in2="effect1_dropShadow" result="shape"/>
</filter>
<filter id="filter1_d" x="16.8628" y="74" width="16" height="16" filterUnits="userSpaceOnUse" color-interpolation-filters="sRGB">
<feFlood flood-opacity="0" result="BackgroundImageFix"/>
<feColorMatrix in="SourceAlpha" type="matrix" values="0 0 0 0 0 0 0 0 0 0 0 0 0 0 0 0 0 0 127 0" result="hardAlpha"/>
<feOffset dy="1"/>
<feGaussianBlur stdDeviation="1"/>
<feColorMatrix type="matrix" values="0 0 0 0 0 0 0 0 0 0 0 0 0 0 0 0 0 0 0.08 0"/>
<feBlend mode="normal" in2="BackgroundImageFix" result="effect1_dropShadow"/>
<feBlend mode="normal" in="SourceGraphic" in2="effect1_dropShadow" result="shape"/>
</filter>
<radialGradient id="paint0_radial" cx="0" cy="0" r="1" gradientUnits="userSpaceOnUse" gradientTransform="translate(24.8628 37) rotate(90) scale(6)">
<stop stop-color="#F7F6F6" stop-opacity="0.7"/>
<stop offset="1" stop-color="#FFFCFC"/>
</radialGradient>
<radialGradient id="paint1_radial" cx="0" cy="0" r="1" gradientUnits="userSpaceOnUse" gradientTransform="translate(24.8628 81) rotate(90) scale(6)">
<stop stop-color="#F7F6F6" stop-opacity="0.7"/>
<stop offset="1" stop-color="#FFFCFC"/>
</radialGradient>
</defs>
</svg>
