<svg width="119" height="48" viewBox="0 0 119 48" fill="none" xmlns="http://www.w3.org/2000/svg">
<path fill-rule="evenodd" clip-rule="evenodd" d="M5.4165 31.3333C5.4165 32.9902 6.75965 34.3333 8.41651 34.3333H9.74984C10.1021 34.3333 10.4401 34.2726 10.7541 34.1611C10.8378 35.7431 12.147 37 13.7498 37H21.446C22.9902 37 24.2619 35.8333 24.4277 34.3333H25.446C27.1029 34.3333 28.446 32.9902 28.446 31.3333V16.6667C28.446 15.0098 27.1029 13.6667 25.446 13.6667H24.4277C24.2619 12.1667 22.9902 11 21.446 11H13.7498C12.147 11 10.8378 12.2569 10.7541 13.8389C10.4401 13.7274 10.1021 13.6667 9.74984 13.6667H8.4165C6.75965 13.6667 5.4165 15.0098 5.4165 16.6667L5.4165 31.3333ZM12.7498 18.1626V29.8374C13.0626 29.7268 13.3992 29.6667 13.7498 29.6667H21.446C22.9902 29.6667 24.2619 30.8334 24.4277 32.3333H25.446C25.9983 32.3333 26.446 31.8856 26.446 31.3333V16.6667C26.446 16.1144 25.9983 15.6667 25.446 15.6667H24.4277C24.2619 17.1666 22.9902 18.3333 21.446 18.3333H13.7498C13.3992 18.3333 13.0626 18.2732 12.7498 18.1626ZM8.41651 32.3333C7.86422 32.3333 7.4165 31.8856 7.4165 31.3333L7.4165 16.6667C7.4165 16.1144 7.86422 15.6667 8.4165 15.6667H9.74984C10.3021 15.6667 10.7498 16.1144 10.7498 16.6667V31.3333C10.7498 31.8856 10.3021 32.3333 9.74984 32.3333H8.41651ZM12.7498 34C12.7498 34.5523 13.1976 35 13.7498 35H21.446C21.9983 35 22.446 34.5523 22.446 34V32.6667C22.446 32.1144 21.9983 31.6667 21.446 31.6667H13.7498C13.1976 31.6667 12.7498 32.1144 12.7498 32.6667V34ZM13.7498 16.3333C13.1976 16.3333 12.7498 15.8856 12.7498 15.3333L12.7498 14C12.7498 13.4477 13.1976 13 13.7498 13H21.446C21.9983 13 22.446 13.4477 22.446 14V15.3333C22.446 15.8856 21.9983 16.3333 21.446 16.3333H13.7498Z" fill="#3ACDAB"/>
<path fill-rule="evenodd" clip-rule="evenodd" d="M114.446 16.6667C114.446 15.0098 113.103 13.6667 111.446 13.6667H110.112C109.76 13.6667 109.422 13.7274 109.108 13.8389C109.024 12.2569 107.715 11 106.112 11L98.4163 11C96.8721 11 95.6004 12.1667 95.4346 13.6667H94.4163C92.7594 13.6667 91.4163 15.0098 91.4163 16.6667V31.3333C91.4163 32.9902 92.7594 34.3333 94.4163 34.3333H95.4346C95.6004 35.8333 96.8721 37 98.4163 37H106.112C107.715 37 109.024 35.7431 109.108 34.1611C109.422 34.2726 109.76 34.3333 110.112 34.3333H111.446C113.103 34.3333 114.446 32.9902 114.446 31.3333V16.6667ZM107.112 29.8374V18.1626C106.8 18.2732 106.463 18.3333 106.112 18.3333L98.4163 18.3333C96.8721 18.3333 95.6004 17.1666 95.4346 15.6667H94.4163C93.864 15.6667 93.4163 16.1144 93.4163 16.6667V31.3333C93.4163 31.8856 93.864 32.3333 94.4163 32.3333H95.4346C95.6004 30.8334 96.8721 29.6667 98.4163 29.6667L106.112 29.6667C106.463 29.6667 106.8 29.7268 107.112 29.8374ZM111.446 15.6667C111.998 15.6667 112.446 16.1144 112.446 16.6667V31.3333C112.446 31.8856 111.998 32.3333 111.446 32.3333H110.112C109.56 32.3333 109.112 31.8856 109.112 31.3333V16.6667C109.112 16.1144 109.56 15.6667 110.112 15.6667H111.446ZM107.112 14C107.112 13.4477 106.665 13 106.112 13L98.4163 13C97.864 13 97.4163 13.4477 97.4163 14V15.3333C97.4163 15.8856 97.864 16.3333 98.4163 16.3333L106.112 16.3333C106.665 16.3333 107.112 15.8856 107.112 15.3333V14ZM106.112 31.6667C106.665 31.6667 107.112 32.1144 107.112 32.6667V34C107.112 34.5523 106.665 35 106.112 35H98.4163C97.864 35 97.4163 34.5523 97.4163 34V32.6667C97.4163 32.1144 97.864 31.6667 98.4163 31.6667L106.112 31.6667Z" fill="#3ACDAB"/>
<rect x="23.9312" y="48" width="48" height="72" rx="4" transform="rotate(-90 23.9312 48)" fill="#3ACDAB"/>
<g filter="url(#filter0_d)">
<circle cx="37.9312" cy="24" r="6" fill="url(#paint0_radial)"/>
</g>
<g filter="url(#filter1_d)">
<circle cx="81.9312" cy="24" r="6" fill="url(#paint1_radial)"/>
</g>
<defs>
<filter id="filter0_d" x="29.9312" y="17" width="16" height="16" filterUnits="userSpaceOnUse" color-interpolation-filters="sRGB">
<feFlood flood-opacity="0" result="BackgroundImageFix"/>
<feColorMatrix in="SourceAlpha" type="matrix" values="0 0 0 0 0 0 0 0 0 0 0 0 0 0 0 0 0 0 127 0" result="hardAlpha"/>
<feOffset dy="1"/>
<feGaussianBlur stdDeviation="1"/>
<feColorMatrix type="matrix" values="0 0 0 0 0 0 0 0 0 0 0 0 0 0 0 0 0 0 0.08 0"/>
<feBlend mode="normal" in2="BackgroundImageFix" result="effect1_dropShadow"/>
<feBlend mode="normal" in="SourceGraphic" in2="effect1_dropShadow" result="shape"/>
</filter>
<filter id="filter1_d" x="73.9312" y="17" width="16" height="16" filterUnits="userSpaceOnUse" color-interpolation-filters="sRGB">
<feFlood flood-opacity="0" result="BackgroundImageFix"/>
<feColorMatrix in="SourceAlpha" type="matrix" values="0 0 0 0 0 0 0 0 0 0 0 0 0 0 0 0 0 0 127 0" result="hardAlpha"/>
<feOffset dy="1"/>
<feGaussianBlur stdDeviation="1"/>
<feColorMatrix type="matrix" values="0 0 0 0 0 0 0 0 0 0 0 0 0 0 0 0 0 0 0.08 0"/>
<feBlend mode="normal" in2="BackgroundImageFix" result="effect1_dropShadow"/>
<feBlend mode="normal" in="SourceGraphic" in2="effect1_dropShadow" result="shape"/>
</filter>
<radialGradient id="paint0_radial" cx="0" cy="0" r="1" gradientUnits="userSpaceOnUse" gradientTransform="translate(37.9312 24) rotate(90) scale(6)">
<stop stop-color="#F7F6F6" stop-opacity="0.7"/>
<stop offset="1" stop-color="#FFFCFC"/>
</radialGradient>
<radialGradient id="paint1_radial" cx="0" cy="0" r="1" gradientUnits="userSpaceOnUse" gradientTransform="translate(81.9312 24) rotate(90) scale(6)">
<stop stop-color="#F7F6F6" stop-opacity="0.7"/>
<stop offset="1" stop-color="#FFFCFC"/>
</radialGradient>
</defs>
</svg>
