<svg width="32" height="32" viewBox="0 0 32 32" fill="none" xmlns="http://www.w3.org/2000/svg">
<path d="M12.1522 29.2368L16.417 21.7523L13.8837 18.3641C13.5514 18.0379 12.9249 17.8059 13.0772 19.4878C13.2294 21.1697 12.8446 22.4419 12.6332 22.8678L10.3678 27.6978C10.0692 28.1473 9.65131 29.1572 10.3678 29.6007C11.3101 30.2079 11.8963 29.5495 12.1522 29.2368Z" fill="#AAAAAA"/>
<path d="M19.8099 12.9389L19.0159 11.7266C18.818 12.6217 18.4467 14.5445 18.5444 15.0745C18.642 15.6046 19.6487 16.1904 20.1398 16.4171C20.9157 16.7625 22.6977 17.5443 23.6183 17.9079C24.5389 18.2715 25.1136 17.7564 25.2859 17.4534C26.101 16.1158 23.0287 15.0917 21.7537 14.5483C20.7338 14.1135 20.0329 13.2942 19.8099 12.9389Z" fill="#AAAAAA"/>
<path d="M7.04199 17.8222C7.93077 18.2666 8.46698 17.598 8.68482 17.2277C9.08518 16.7419 10.0375 15.5987 10.591 14.7992C11.1445 13.9998 11.869 13.7018 12.074 13.6634L13.313 13.4299C13.1784 14.894 12.9132 17.005 12.9132 17.005C12.9132 17.005 12.7163 18.1052 12.7957 18.5945C12.8751 19.0838 13.2156 19.5191 13.4017 19.7175L16.1514 22.184C17.3071 23.2316 18.4861 24.3046 18.7349 25.035L20.5409 28.9238C20.7215 29.3652 21.2849 30.1903 22.094 29.9592C22.9031 29.728 22.6639 28.4903 22.4431 27.9004L20.9502 23.3735C20.8338 22.932 20.5577 21.9432 20.3844 21.5194C20.211 21.0956 19.5496 19.9783 19.2406 19.4727L18.648 18.5105C18.648 17.134 18.741 15.5165 18.741 15.2567L19.117 12.0488C19.2603 10.3552 18.5047 9.53464 17.3192 9.15659C16.3956 8.86205 15.0828 9.22609 14.5053 9.53441L12.074 10.6009C10.035 11.3851 9.04609 12.4742 8.80648 12.9208L7.04157 16.0265C6.76927 16.3968 6.1532 17.3778 7.04199 17.8222Z" fill="#333333"/>
<ellipse cx="17.6797" cy="4.77891" rx="2.7305" ry="2.77989" fill="#333333"/>
</svg>
