<svg width="32" height="32" viewBox="0 0 32 32" fill="none" xmlns="http://www.w3.org/2000/svg">
<path d="M11.6152 20.7574C12.7961 19.6294 14.3663 19 15.9993 19C17.6323 19 19.2025 19.6294 20.3834 20.7574" stroke="#333333" stroke-width="2" stroke-linecap="round" stroke-linejoin="round"/>
<path d="M7.37207 16.5147C9.67828 14.2615 12.7745 13 15.9988 13C19.223 13 22.3193 14.2615 24.6255 16.5147" stroke="#333333" stroke-width="2" stroke-linecap="round" stroke-linejoin="round"/>
<path d="M3.13281 12.2721C6.56298 8.89367 11.1843 7 15.9989 7C20.8134 7 25.4347 8.89367 28.8649 12.2721" stroke="#333333" stroke-width="2" stroke-linecap="round" stroke-linejoin="round"/>
<path d="M16 26.5C16.8284 26.5 17.5 25.8284 17.5 25C17.5 24.1716 16.8284 23.5 16 23.5C15.1716 23.5 14.5 24.1716 14.5 25C14.5 25.8284 15.1716 26.5 16 26.5Z" fill="#333333"/>
</svg>
